<?xml version="1.0" encoding="UTF-8" standalone="no"?><!DOCTYPE svg PUBLIC "-//W3C//DTD SVG 1.1//EN" "http://www.w3.org/Graphics/SVG/1.1/DTD/svg11.dtd"><svg width="100%" height="100%" viewBox="0 0 2084 2084" version="1.1" xmlns="http://www.w3.org/2000/svg" xmlns:xlink="http://www.w3.org/1999/xlink" xml:space="preserve" xmlns:serif="http://www.serif.com/" style="fill-rule:evenodd;clip-rule:evenodd;"><rect x="-208.333" y="-208.333" width="2500" height="2500" style="fill:#fff;"/><rect x="-208.333" y="-208.333" width="2500" height="2500" style="fill:#9c7a57;"/><g><g><g><clipPath id="_clip1"><rect x="614.267" y="451.521" width="210.88" height="780.09"/></clipPath><g clip-path="url(#_clip1)"><path d="M650.542,1210.11l-6.067,-583.942" style="fill:none;fill-rule:nonzero;stroke:#eee9d1;stroke-width:29.33px;"/></g></g><g><clipPath id="_clip2"><rect x="614.267" y="1022.01" width="780.956" height="209.6"/></clipPath><g clip-path="url(#_clip2)"><path d="M1375.37,1200.95l-736.799,-3.095" style="fill:none;fill-rule:nonzero;stroke:#eee9d1;stroke-width:29.33px;"/></g></g><g><clipPath id="_clip3"><rect x="614.267" y="252.898" width="559.512" height="557.82"/></clipPath><g clip-path="url(#_clip3)"><path d="M638.574,638.177l365.923,-349.293" style="fill:none;fill-rule:nonzero;stroke:#eee9d1;stroke-width:29.33px;"/></g></g><g><clipPath id="_clip4"><rect x="825.147" y="252.898" width="570.077" height="547.255"/></clipPath><g clip-path="url(#_clip4)"><path d="M991.085,278.608l365.841,349.211" style="fill:none;fill-rule:nonzero;stroke:#eee9d1;stroke-width:29.33px;"/></g></g></g></g><path d="M734.728,1820.42l534.256,0" style="fill:none;fill-rule:nonzero;stroke:#eee9d1;stroke-width:15.85px;"/><g><path d="M807.979,1122.21c0,5.818 4.705,10.523 10.524,10.523c5.818,-0 10.523,-4.705 10.523,-10.523l-0,-47.541c21.418,-6.232 73.168,-29.053 73.168,-103.748c0,-87.488 -71.6,-208.651 -74.654,-213.727c-3.796,-6.397 -14.278,-6.397 -18.075,-0c-3.054,5.076 -74.654,126.239 -74.654,213.727c0,74.695 51.75,97.516 73.168,103.748l0,47.541" style="fill:#eee9d1;fill-rule:nonzero;"/></g><path d="M1140.35,931.551l-0,19.768c-0,5.818 4.705,10.564 10.523,10.564c5.819,0 10.565,-4.746 10.565,-10.564l-0,-19.768c16.012,-5.695 36.563,-21.748 36.563,-55.877c0,-45.147 -36.522,-106.925 -38.049,-109.525c-1.898,-3.219 -5.365,-5.159 -9.079,-5.159c-3.673,0 -7.139,1.94 -9.037,5.159c-1.527,2.6 -38.091,64.378 -38.091,109.525c0,34.129 20.552,50.182 36.605,55.877" style="fill:#eee9d1;fill-rule:nonzero;"/><g><path d="M982.13,980.33l0,33.427c0,5.819 4.705,10.523 10.524,10.523c5.818,0 10.564,-4.704 10.564,-10.523l0,-33.427c22.822,-6.85 54.845,-29.259 54.845,-80.06c0,-66.276 -54.061,-157.768 -56.33,-161.647c-1.899,-3.177 -5.365,-5.117 -9.079,-5.117c-3.673,-0 -7.14,1.94 -9.038,5.117c-2.311,3.879 -56.372,95.371 -56.372,161.647c-0,50.801 32.065,73.21 54.886,80.06" style="fill:#eee9d1;fill-rule:nonzero;"/></g><g><clipPath id="_clip5"><rect x="761.759" y="937.494" width="614.77" height="263.373"/></clipPath><g clip-path="url(#_clip5)"><path d="M1116.17,1182.3l-309.345,-0c58.642,-50.141 244.1,-189.462 517.501,-213.273c-53.153,36.439 -154.343,114.518 -208.156,213.273Zm258.008,-229.409c-1.362,-4.622 -5.572,-7.8 -10.524,-7.552c-364.768,15.805 -589.472,237.827 -591.701,240.056c-2.971,3.012 -3.879,7.552 -2.228,11.472c1.65,3.921 5.447,6.479 9.698,6.479l343.061,0c3.92,0 7.552,-2.187 9.326,-5.653c69.248,-132.512 235.93,-231.762 237.622,-232.752c4.168,-2.435 6.149,-7.428 4.746,-12.05" style="fill:#eee9d1;fill-rule:nonzero;"/></g></g><g><g><g><g><g><path d="M272.069,1396.97c11.555,0 21.665,2.641 30.373,7.924c8.666,5.199 15.393,12.71 20.139,22.615c4.828,9.821 7.263,21.376 7.263,34.665c-0,13.329 -2.435,24.884 -7.263,34.665c-4.746,9.822 -11.473,17.332 -20.139,22.615c-8.708,5.199 -18.818,7.758 -30.373,7.758l-51.668,0c-2.558,0 -4.374,-0.536 -5.447,-1.651c-0.991,-1.196 -1.486,-3.136 -1.486,-5.777c0,-2.724 0.495,-4.663 1.486,-5.778c1.073,-1.073 2.889,-1.65 5.447,-1.65l12.381,-0l-0,-100.529l-12.381,-0c-2.558,-0 -4.374,-0.537 -5.447,-1.651c-0.991,-1.197 -1.486,-3.136 -1.486,-5.778c0,-2.723 0.495,-4.663 1.486,-5.777c1.073,-1.073 2.889,-1.651 5.447,-1.651l51.668,0Zm-22.945,115.386l20.469,-0c8.666,-0 16.218,-1.899 22.615,-5.778c6.479,-3.838 11.472,-9.492 15.021,-17.002c3.508,-7.594 5.282,-16.714 5.282,-27.402c0,-10.771 -1.774,-19.892 -5.282,-27.402c-3.549,-7.47 -8.542,-13.124 -15.021,-17.003c-6.397,-3.961 -13.949,-5.942 -22.615,-5.942l-20.469,-0l-0,100.529Z" style="fill:#eee9d1;fill-rule:nonzero;"/></g></g></g><g><g><g><path d="M470.342,1394.49c3.054,0 5.2,0.578 6.438,1.651c1.196,1.114 1.815,2.93 1.815,5.447l0,31.859c0,2.559 -0.619,4.375 -1.815,5.447c-1.238,1.115 -3.384,1.651 -6.438,1.651c-2.971,0 -5.076,-0.536 -6.273,-1.651c-1.238,-1.072 -1.816,-2.888 -1.816,-5.447c0,-4.374 -1.238,-8.295 -3.631,-11.72c-2.435,-3.384 -5.943,-6.108 -10.565,-8.089c-4.622,-1.98 -10.069,-2.971 -16.342,-2.971c-8.171,0 -15.352,2.105 -21.624,6.273c-6.273,4.209 -11.184,10.193 -14.692,17.993c-3.549,7.717 -5.282,16.796 -5.282,27.237c-0,10.358 1.651,19.396 4.952,27.071c3.384,7.718 8.13,13.66 14.196,17.828c6.149,4.21 13.247,6.273 21.294,6.273c12.752,0 23.688,-2.063 32.85,-6.273l-0,-24.926l-27.072,0c-2.559,0 -4.374,-0.536 -5.447,-1.65c-0.991,-1.073 -1.486,-3.013 -1.486,-5.778c-0,-2.641 0.495,-4.498 1.486,-5.612c1.073,-1.197 2.888,-1.816 5.447,-1.816l47.046,-0c2.393,-0 4.168,0.619 5.282,1.816c1.073,1.114 1.651,2.971 1.651,5.612c-0,2.765 -0.578,4.705 -1.651,5.778c-1.114,1.114 -2.889,1.65 -5.282,1.65l-3.467,0l0,29.383c0,3.549 -1.321,6.067 -3.962,7.594c-6.066,3.425 -12.999,6.066 -20.799,7.923c-7.841,1.733 -16.012,2.641 -24.596,2.641c-11.472,0 -21.583,-2.806 -30.373,-8.419c-8.707,-5.612 -15.475,-13.535 -20.304,-23.77c-4.745,-10.234 -7.098,-21.996 -7.098,-35.325c0,-13.289 2.476,-25.091 7.428,-35.326c4.953,-10.317 11.762,-18.323 20.469,-23.935c8.791,-5.613 18.736,-8.419 29.878,-8.419c6.81,0 12.876,1.114 18.158,3.302c5.365,2.104 9.905,5.199 13.536,9.244l0,-5.448c0,-2.517 0.578,-4.333 1.816,-5.447c1.197,-1.073 3.302,-1.651 6.273,-1.651Z" style="fill:#eee9d1;fill-rule:nonzero;"/></g></g></g><g><g><g><path d="M780.225,1394.49c2.972,0 5.035,0.578 6.273,1.651c1.321,1.114 1.981,2.93 1.981,5.447l-0,25.256c-0,2.559 -0.66,4.375 -1.981,5.448c-1.238,1.114 -3.301,1.65 -6.273,1.65c-2.765,0 -4.622,-0.908 -5.612,-2.806c-3.549,-6.603 -8.501,-11.637 -14.857,-15.187c-6.396,-3.507 -13.659,-5.282 -21.789,-5.282c-8.047,0 -14.32,1.898 -18.818,5.613c-4.416,3.755 -6.603,8.748 -6.603,15.021c-0,3.095 0.743,5.695 2.311,7.759c1.527,1.98 3.714,3.714 6.603,5.117c2.641,1.32 5.653,2.435 9.079,3.301c3.384,0.784 8.006,1.734 13.866,2.806c6.272,1.321 11.225,2.435 14.856,3.302c3.714,0.784 7.428,1.898 11.06,3.301c7.263,3.095 12.917,7.346 17.002,12.711c4.168,5.282 6.273,12.545 6.273,21.789c0,7.594 -1.816,14.279 -5.447,19.974c-3.549,5.736 -8.832,10.235 -15.847,13.536c-6.933,3.178 -15.311,4.787 -25.091,4.787c-7.387,0 -14.196,-1.32 -20.469,-3.962c-6.19,-2.723 -11.555,-6.644 -16.177,-11.72l-0,8.419c-0,2.641 -0.66,4.539 -1.981,5.612c-1.238,1.073 -3.301,1.651 -6.273,1.651c-2.971,0 -5.117,-0.578 -6.438,-1.651c-1.238,-1.073 -1.815,-2.971 -1.815,-5.612l-0,-32.849c-0,-2.518 0.577,-4.334 1.815,-5.448c1.321,-1.073 3.467,-1.65 6.438,-1.65c3.178,-0 5.324,1.568 6.438,4.622c2.971,8.501 7.676,14.98 14.196,19.478c6.603,4.54 14.692,6.768 24.266,6.768c9.326,0 16.507,-1.981 21.459,-5.943c5.035,-4.044 7.594,-9.409 7.594,-16.012c-0,-4.622 -1.156,-8.336 -3.467,-11.224c-2.311,-2.972 -5.695,-5.365 -10.069,-7.264c-2.765,-1.32 -5.778,-2.311 -9.079,-2.971c-3.302,-0.743 -7.841,-1.733 -13.536,-2.971c-5.943,-1.197 -10.978,-2.311 -15.022,-3.302c-4.085,-0.99 -7.841,-2.228 -11.225,-3.796c-5.86,-2.642 -10.399,-6.191 -13.701,-10.73c-3.301,-4.498 -4.952,-10.441 -4.952,-17.828c0,-7.469 1.816,-13.948 5.448,-19.478c3.631,-5.613 8.666,-9.905 15.186,-12.876c6.479,-2.971 13.866,-4.457 22.12,-4.457c6.479,0 12.71,1.279 18.653,3.797c6.025,2.435 11.142,5.777 15.352,10.069l-0,-6.768c-0,-2.517 0.577,-4.333 1.815,-5.447c1.321,-1.073 3.467,-1.651 6.438,-1.651Z" style="fill:#eee9d1;fill-rule:nonzero;"/></g></g></g><g><g><g><path d="M902.4,1423.38c10.647,-0 19.726,2.146 27.237,6.438c7.47,4.291 13.206,10.234 17.168,17.827c4.044,7.511 6.437,16.177 7.098,26.082c-0,2.558 -0.578,4.292 -1.651,5.282c-1.114,0.99 -2.889,1.486 -5.282,1.486l-79.565,-0c0.536,10.894 3.797,19.148 9.739,24.76c5.943,5.613 14.361,8.419 25.256,8.419c6.809,0 13.454,-0.825 19.974,-2.476c6.603,-1.733 12.38,-4.044 17.332,-6.933c1.321,-0.66 2.477,-0.99 3.467,-0.99c2.517,-0 4.622,1.939 6.273,5.777c0.66,1.568 0.99,2.971 0.99,4.292c0,2.889 -1.609,5.117 -4.787,6.768c-5.736,2.889 -12.463,5.2 -20.139,6.933c-7.593,1.733 -15.31,2.641 -23.11,2.641c-11.018,0 -20.428,-2.146 -28.227,-6.438c-7.841,-4.292 -13.825,-10.399 -17.993,-18.323c-4.086,-7.923 -6.108,-17.373 -6.108,-28.392c0,-10.441 2.187,-19.685 6.603,-27.732c4.498,-8.13 10.73,-14.403 18.653,-18.818c7.924,-4.375 16.92,-6.603 27.072,-6.603Zm0,15.847c-8.914,-0 -16.342,2.311 -22.285,6.933c-5.942,4.539 -9.821,10.853 -11.555,18.983l67.02,-0c-1.569,-8.336 -5.076,-14.733 -10.565,-19.148c-5.53,-4.499 -13.041,-6.768 -22.615,-6.768Z" style="fill:#eee9d1;fill-rule:nonzero;"/></g></g></g><g><g><g><path d="M1092.42,1423.38c5.695,-0 11.06,1.444 16.012,4.292c2.971,1.774 4.457,4.085 4.457,6.933c-0,1.32 -0.331,2.888 -0.991,4.622c-1.568,4.209 -3.714,6.272 -6.438,6.272c-1.114,0 -2.146,-0.33 -3.136,-0.99c-3.549,-1.981 -7.346,-2.971 -11.39,-2.971c-6.603,-0 -13.288,2.311 -19.974,6.933c-6.603,4.539 -12.05,10.647 -16.342,18.323c-4.292,7.593 -6.438,15.682 -6.438,24.265l0,21.295l36.976,-0c2.518,-0 4.292,0.577 5.283,1.65c1.073,1.115 1.651,3.054 1.651,5.778c-0,2.641 -0.578,4.581 -1.651,5.777c-0.991,1.115 -2.765,1.651 -5.283,1.651l-70.65,0c-2.559,0 -4.375,-0.536 -5.448,-1.651c-0.99,-1.196 -1.485,-3.136 -1.485,-5.777c-0,-2.724 0.495,-4.663 1.485,-5.778c1.073,-1.073 2.889,-1.65 5.448,-1.65l17.167,-0l0,-71.642l-13.866,0c-2.559,0 -4.374,-0.536 -5.447,-1.65c-0.991,-1.197 -1.486,-3.137 -1.486,-5.778c0,-2.724 0.495,-4.663 1.486,-5.777c1.073,-1.073 2.888,-1.651 5.447,-1.651l22.285,-0c2.517,-0 4.292,0.578 5.282,1.651c1.073,1.114 1.651,3.053 1.651,5.777l-0,22.12c3.508,-6.356 7.758,-11.968 12.71,-16.838c5.035,-4.828 10.4,-8.583 16.012,-11.225c5.613,-2.641 11.143,-3.961 16.673,-3.961Z" style="fill:#eee9d1;fill-rule:nonzero;"/></g></g></g><g><g><g><path d="M1271.21,1425.86c2.394,-0 4.127,0.578 5.118,1.651c1.073,1.114 1.65,3.053 1.65,5.777c0,2.641 -0.577,4.581 -1.65,5.778c-0.991,1.114 -2.724,1.65 -5.118,1.65l-6.933,0l-35.49,81.711c-0.991,2.559 -2.559,4.374 -4.622,5.447c-1.981,1.197 -4.787,1.816 -8.419,1.816c-3.549,0 -6.273,-0.619 -8.254,-1.816c-1.898,-1.073 -3.384,-2.888 -4.456,-5.447l-35.161,-81.711l-6.768,0c-2.435,0 -4.209,-0.536 -5.282,-1.65c-1.114,-1.197 -1.651,-3.137 -1.651,-5.778c0,-2.724 0.537,-4.663 1.651,-5.777c1.073,-1.073 2.847,-1.651 5.282,-1.651l38.957,-0c2.394,-0 4.127,0.578 5.117,1.651c1.073,1.114 1.651,3.053 1.651,5.777c0,2.641 -0.578,4.581 -1.651,5.778c-0.99,1.114 -2.723,1.65 -5.117,1.65l-14.196,0l30.043,71.642l30.373,-71.642l-9.574,0c-2.558,0 -4.374,-0.536 -5.447,-1.65c-0.991,-1.197 -1.486,-3.137 -1.486,-5.778c0,-2.724 0.495,-4.663 1.486,-5.777c1.073,-1.073 2.889,-1.651 5.447,-1.651l34.5,-0Z" style="fill:#eee9d1;fill-rule:nonzero;"/></g></g></g><g><g><g><path d="M1377.38,1425.86c2.518,-0 4.292,0.578 5.282,1.651c1.073,1.114 1.651,3.053 1.651,5.777l0,79.07l35.326,-0c2.393,-0 4.168,0.577 5.282,1.65c1.073,1.115 1.651,3.054 1.651,5.778c-0,2.641 -0.578,4.581 -1.651,5.777c-1.114,1.115 -2.889,1.651 -5.282,1.651l-86.168,0c-2.435,0 -4.209,-0.536 -5.282,-1.651c-1.115,-1.196 -1.651,-3.136 -1.651,-5.777c-0,-2.724 0.536,-4.663 1.651,-5.778c1.073,-1.073 2.847,-1.65 5.282,-1.65l34.335,-0l-0,-71.642l-27.732,0c-2.435,0 -4.209,-0.536 -5.282,-1.65c-1.115,-1.197 -1.651,-3.137 -1.651,-5.778c-0,-2.724 0.536,-4.663 1.651,-5.777c1.073,-1.073 2.847,-1.651 5.282,-1.651l37.306,-0Zm-3.466,-48.201c4.044,-0 6.809,0.577 8.253,1.65c1.527,0.991 2.311,2.807 2.311,5.448l0,14.196c0,2.641 -0.784,4.54 -2.311,5.612c-1.444,0.991 -4.209,1.486 -8.253,1.486c-3.962,0 -6.727,-0.495 -8.254,-1.486c-1.444,-1.072 -2.146,-2.971 -2.146,-5.612l0,-14.196c0,-2.641 0.702,-4.457 2.146,-5.448c1.527,-1.073 4.292,-1.65 8.254,-1.65Z" style="fill:#eee9d1;fill-rule:nonzero;"/></g></g></g><g><g><g><path d="M1570.37,1423.38c2.971,-0 5.035,0.577 6.273,1.65c1.32,1.115 1.981,2.93 1.981,5.448l-0,31.859c-0,2.558 -0.661,4.374 -1.981,5.447c-1.238,1.114 -3.302,1.651 -6.273,1.651c-3.095,-0 -5.241,-0.537 -6.438,-1.651c-1.238,-1.073 -1.816,-2.889 -1.816,-5.447c0,-4.498 -1.238,-8.46 -3.631,-11.885c-2.311,-3.384 -5.778,-6.026 -10.4,-7.924c-4.622,-1.981 -10.193,-2.971 -16.672,-2.971c-7.057,-0 -13.371,1.609 -18.983,4.787c-5.53,3.095 -9.863,7.511 -13.041,13.206c-3.095,5.612 -4.622,11.967 -4.622,18.983c-0,7.057 1.403,13.371 4.292,18.983c2.971,5.613 7.139,10.028 12.545,13.206c5.365,3.095 11.597,4.622 18.653,4.622c6.686,0 13.206,-1.032 19.479,-3.136c6.355,-2.064 12.133,-5.118 17.333,-9.079c1.526,-1.073 2.971,-1.651 4.291,-1.651c2.188,-0 4.168,1.486 5.943,4.457c1.073,1.898 1.651,3.631 1.651,5.282c-0,2.559 -1.156,4.705 -3.467,6.438c-5.86,4.292 -12.793,7.717 -20.799,10.235c-7.923,2.517 -16.094,3.796 -24.431,3.796c-10.482,0 -19.726,-2.311 -27.732,-6.933c-8.047,-4.622 -14.278,-10.936 -18.653,-18.983c-4.415,-8.006 -6.603,-17.085 -6.603,-27.237c0,-10.111 2.229,-19.19 6.768,-27.237c4.498,-8.006 10.73,-14.361 18.653,-18.983c8.006,-4.622 17.209,-6.933 27.567,-6.933c6.48,-0 12.422,1.238 17.828,3.631c5.489,2.311 10.152,5.695 14.031,10.07l0,-6.603c0,-2.518 0.578,-4.333 1.816,-5.448c1.197,-1.073 3.343,-1.65 6.438,-1.65Z" style="fill:#eee9d1;fill-rule:nonzero;"/></g></g></g><g><g><g><path d="M1689.08,1423.38c10.648,-0 19.726,2.146 27.237,6.438c7.47,4.291 13.206,10.234 17.168,17.827c4.044,7.511 6.438,16.177 7.098,26.082c-0,2.558 -0.578,4.292 -1.651,5.282c-1.114,0.99 -2.889,1.486 -5.282,1.486l-79.565,-0c0.537,10.894 3.797,19.148 9.739,24.76c5.943,5.613 14.362,8.419 25.256,8.419c6.81,0 13.454,-0.825 19.974,-2.476c6.603,-1.733 12.381,-4.044 17.333,-6.933c1.32,-0.66 2.476,-0.99 3.466,-0.99c2.518,-0 4.622,1.939 6.273,5.777c0.66,1.568 0.99,2.971 0.99,4.292c0,2.889 -1.609,5.117 -4.787,6.768c-5.736,2.889 -12.463,5.2 -20.139,6.933c-7.593,1.733 -15.31,2.641 -23.11,2.641c-11.018,0 -20.427,-2.146 -28.227,-6.438c-7.841,-4.292 -13.825,-10.399 -17.993,-18.323c-4.085,-7.923 -6.107,-17.373 -6.107,-28.392c-0,-10.441 2.187,-19.685 6.602,-27.732c4.499,-8.13 10.73,-14.403 18.654,-18.818c7.923,-4.375 16.919,-6.603 27.071,-6.603Zm0,15.847c-8.914,-0 -16.342,2.311 -22.284,6.933c-5.943,4.539 -9.822,10.853 -11.555,18.983l67.019,-0c-1.568,-8.336 -5.076,-14.733 -10.565,-19.148c-5.53,-4.499 -13.04,-6.768 -22.615,-6.768Z" style="fill:#eee9d1;fill-rule:nonzero;"/></g></g></g></g></g><g><g><g><g><g><path d="M253.633,1604.17l0,57.775l-10.729,-0l-0,-24.761l-29.878,0l-0,24.761l-10.73,-0l-0,-57.775l10.73,-0l-0,23.77l29.878,0l-0,-23.77l10.729,-0Z" style="fill:#eee9d1;fill-rule:nonzero;"/></g></g></g><g><g><g><path d="M356.121,1648.57l-28.888,0l-5.612,13.371l-11.225,-0l26.081,-57.775l10.565,-0l26.081,57.775l-11.225,-0l-5.777,-13.371Zm-3.467,-8.419l-10.895,-25.256l-10.894,25.256l21.789,0Z" style="fill:#eee9d1;fill-rule:nonzero;"/></g></g></g><g><g><g><path d="M454.895,1662.77c-8.047,0 -14.32,-2.228 -18.818,-6.768c-4.416,-4.498 -6.603,-10.936 -6.603,-19.313l-0,-32.519l10.73,-0l-0,32.189c-0,11.348 4.869,17.002 14.691,17.002c9.781,0 14.691,-5.654 14.691,-17.002l0,-32.189l10.565,-0l0,32.519c0,8.377 -2.27,14.815 -6.768,19.313c-4.416,4.54 -10.565,6.768 -18.488,6.768Z" style="fill:#eee9d1;fill-rule:nonzero;"/></g></g></g><g><g><g><path d="M562.583,1662.77c-4.54,0 -8.873,-0.619 -13.041,-1.815c-4.086,-1.321 -7.346,-3.013 -9.739,-5.118l3.631,-8.418c2.394,1.898 5.324,3.425 8.749,4.622c3.384,1.238 6.85,1.815 10.4,1.815c4.291,0 7.469,-0.66 9.574,-1.98c2.063,-1.404 3.136,-3.302 3.136,-5.613c0,-1.651 -0.619,-2.971 -1.816,-3.962c-1.114,-1.073 -2.6,-1.898 -4.457,-2.476c-1.774,-0.66 -4.25,-1.362 -7.428,-2.146c-4.416,-1.073 -8.006,-2.146 -10.73,-3.136c-2.641,-1.073 -4.952,-2.724 -6.933,-4.952c-1.98,-2.187 -2.971,-5.2 -2.971,-9.079c0,-3.178 0.867,-6.025 2.641,-8.584c1.734,-2.641 4.333,-4.704 7.759,-6.273c3.507,-1.527 7.799,-2.311 12.875,-2.311c3.508,0 6.975,0.454 10.4,1.321c3.384,0.908 6.355,2.146 8.914,3.797l-3.467,8.253c-2.558,-1.403 -5.2,-2.517 -7.923,-3.301c-2.765,-0.743 -5.406,-1.156 -7.924,-1.156c-4.292,0 -7.511,0.743 -9.574,2.146c-1.981,1.445 -2.971,3.302 -2.971,5.613c-0,1.65 0.536,3.053 1.651,4.126c1.196,0.991 2.682,1.816 4.456,2.477c1.858,0.577 4.375,1.238 7.594,1.98c4.292,0.991 7.799,2.064 10.564,3.137c2.724,1.114 5.035,2.765 6.933,4.952c1.981,2.228 2.972,5.2 2.972,8.914c-0,3.219 -0.908,6.107 -2.641,8.749c-1.651,2.558 -4.251,4.58 -7.759,6.107c-3.549,1.527 -7.841,2.311 -12.875,2.311Z" style="fill:#eee9d1;fill-rule:nonzero;"/></g></g></g><g><g><g><path d="M743.22,1662.77c-8.047,0 -14.32,-2.228 -18.818,-6.768c-4.415,-4.498 -6.603,-10.936 -6.603,-19.313l0,-32.519l10.73,-0l0,32.189c0,11.348 4.87,17.002 14.691,17.002c9.781,0 14.692,-5.654 14.692,-17.002l-0,-32.189l10.565,-0l-0,32.519c-0,8.377 -2.27,14.815 -6.768,19.313c-4.416,4.54 -10.565,6.768 -18.489,6.768Z" style="fill:#eee9d1;fill-rule:nonzero;"/></g></g></g><g><g><g><path d="M884.253,1604.17l-0,57.775l-8.749,-0l-31.859,-39.122l-0,39.122l-10.73,-0l0,-57.775l8.914,-0l31.859,39.122l-0,-39.122l10.565,-0Z" style="fill:#eee9d1;fill-rule:nonzero;"/></g></g></g><g><g><g><path d="M949.269,1604.17l25.256,-0c6.149,-0 11.596,1.238 16.342,3.631c4.828,2.311 8.584,5.695 11.225,10.07c2.641,4.415 3.961,9.491 3.961,15.186c0,5.737 -1.32,10.813 -3.961,15.187c-2.641,4.292 -6.397,7.676 -11.225,10.069c-4.746,2.435 -10.193,3.632 -16.342,3.632l-25.256,-0l-0,-57.775Zm24.76,48.696c4.292,-0 8.006,-0.825 11.225,-2.476c3.178,-1.651 5.654,-3.962 7.429,-6.933c1.733,-2.971 2.641,-6.438 2.641,-10.4c-0,-3.961 -0.908,-7.428 -2.641,-10.399c-1.775,-3.054 -4.251,-5.365 -7.429,-6.933c-3.219,-1.651 -6.933,-2.476 -11.225,-2.476l-14.031,-0l0,39.617l14.031,-0Z" style="fill:#eee9d1;fill-rule:nonzero;"/></g></g></g><g><g><g><path d="M1178.68,1632.4l10.235,0l-0,22.945c-2.972,2.435 -6.438,4.292 -10.4,5.613c-3.962,1.196 -8.047,1.815 -12.215,1.815c-5.943,0 -11.308,-1.238 -16.012,-3.796c-4.746,-2.641 -8.501,-6.191 -11.225,-10.73c-2.641,-4.498 -3.962,-9.574 -3.962,-15.187c0,-5.695 1.321,-10.812 3.962,-15.351c2.724,-4.499 6.479,-8.006 11.225,-10.565c4.828,-2.517 10.234,-3.797 16.177,-3.797c4.828,0 9.244,0.826 13.206,2.476c3.961,1.569 7.263,3.88 9.904,6.933l-6.768,6.603c-4.416,-4.374 -9.698,-6.603 -15.847,-6.603c-4.085,0 -7.717,0.908 -10.895,2.642c-3.218,1.65 -5.695,4.044 -7.428,7.098c-1.774,3.095 -2.641,6.603 -2.641,10.564c0,3.88 0.867,7.346 2.641,10.4c1.733,3.095 4.21,5.53 7.428,7.263c3.178,1.775 6.768,2.641 10.73,2.641c4.498,0 8.46,-0.99 11.885,-2.971l0,-17.993Z" style="fill:#eee9d1;fill-rule:nonzero;"/></g></g></g><g><g><g><path d="M1289.92,1648.57l-28.887,0l-5.613,13.371l-11.225,-0l26.082,-57.775l10.564,-0l26.082,57.775l-11.225,-0l-5.778,-13.371Zm-3.466,-8.419l-10.895,-25.256l-10.895,25.256l21.79,0Z" style="fill:#eee9d1;fill-rule:nonzero;"/></g></g></g><g><g><g><path d="M1401.57,1661.94l-11.72,-17.002c-0.578,0.123 -1.321,0.165 -2.311,0.165l-13.041,-0l0,16.837l-10.729,-0l-0,-57.775l23.77,-0c5.035,-0 9.409,0.825 13.041,2.476c3.714,1.651 6.603,4.044 8.583,7.098c1.981,3.095 2.972,6.727 2.972,10.895c-0,4.415 -1.073,8.212 -3.137,11.39c-2.104,3.095 -5.117,5.406 -9.079,6.933l13.206,18.983l-11.555,-0Zm-0.165,-37.306c0,-3.632 -1.238,-6.438 -3.632,-8.419c-2.434,-1.981 -6.025,-2.971 -10.729,-2.971l-12.546,-0l0,22.945l12.546,-0c4.704,-0 8.295,-0.991 10.729,-2.972c2.394,-1.98 3.632,-4.828 3.632,-8.583Z" style="fill:#eee9d1;fill-rule:nonzero;"/></g></g></g><g><g><g><path d="M1485.32,1613.25l-19.148,-0l-0,-9.079l49.026,-0l0,9.079l-19.148,-0l-0,48.696l-10.73,-0l0,-48.696Z" style="fill:#eee9d1;fill-rule:nonzero;"/></g></g></g><g><g><g><path d="M1616.2,1652.87l0,9.079l-43.414,-0l0,-57.775l42.259,-0l-0,8.914l-31.529,-0l-0,15.021l27.897,0l0,8.914l-27.897,0l-0,15.847l32.684,-0Z" style="fill:#eee9d1;fill-rule:nonzero;"/></g></g></g><g><g><g><path d="M1728.93,1604.17l0,57.775l-8.748,-0l-31.859,-39.122l-0,39.122l-10.73,-0l-0,-57.775l8.914,-0l31.859,39.122l-0,-39.122l10.564,-0Z" style="fill:#eee9d1;fill-rule:nonzero;"/></g></g></g></g></g></svg>